<?xml version="1.0" encoding="UTF-8" standalone="no"?>
<!DOCTYPE svg PUBLIC "-//W3C//DTD SVG 1.1//EN" "http://www.w3.org/Graphics/SVG/1.1/DTD/svg11.dtd">
<svg width="100%" height="100%" viewBox="0 0 550 60" version="1.1" xmlns="http://www.w3.org/2000/svg" xmlns:xlink="http://www.w3.org/1999/xlink" xml:space="preserve" xmlns:serif="http://www.serif.com/" style="fill-rule:evenodd;clip-rule:evenodd;stroke-linejoin:round;stroke-miterlimit:2;">
    <g transform="matrix(1,0,0,1,-600.028,-536.102)">
        <text x="612.651px" y="582.918px" style="font-family:'RobotoSlab-Bold', 'Roboto Slab';font-weight:700;font-size:48px;">M</text>
        <text x="661.073px" y="582.918px" style="font-family:'RobotoSlab-Bold', 'Roboto Slab';font-weight:700;font-size:36px;">ICH<tspan x="723.282px " y="582.918px ">A</tspan>EL</text>
        <text x="805.712px" y="582.918px" style="font-family:'RobotoSlab-Bold', 'Roboto Slab';font-weight:700;font-size:48px;">J</text>
        <text x="833.884px" y="582.918px" style="font-family:'RobotoSlab-Bold', 'Roboto Slab';font-weight:700;font-size:36px;">AMES</text>
        <text x="953.456px" y="582.918px" style="font-family:'RobotoSlab-Bold', 'Roboto Slab';font-weight:700;font-size:48px;">B</text>
        <text x="984.956px" y="582.918px" style="font-family:'RobotoSlab-Bold', 'Roboto Slab';font-weight:700;font-size:36px;">RA<tspan x="1035.23px " y="582.918px ">C</tspan>KEN</text>
    </g>
    <g transform="matrix(1.05338,0,0,0.955783,-736.245,-486.123)">
        <path d="M1221.06,508.612L698.936,508.612L698.936,571.388L1221.06,571.388L1221.06,508.612ZM1217.27,512.797L1217.27,567.203C1217.27,567.203 749.735,567.203 702.733,567.203C702.733,567.203 702.733,512.797 702.733,512.797C749.735,512.797 1217.27,512.797 1217.27,512.797L1217.27,512.797Z"/>
    </g>
</svg>
